<?xml version="1.0" encoding="utf-8"?>
<!-- Svg Vector Icons : http://www.onlinewebfonts.com/icon -->
<!DOCTYPE svg PUBLIC "-//W3C//DTD SVG 1.1//EN" "http://www.w3.org/Graphics/SVG/1.1/DTD/svg11.dtd">
<svg version="1.1" xmlns="http://www.w3.org/2000/svg" xmlns:xlink="http://www.w3.org/1999/xlink" x="0px" y="0px" viewBox="0 0 1000 1000" enable-background="new 0 0 1000 1000" xml:space="preserve">
<metadata> Svg Vector Icons : http://www.onlinewebfonts.com/icon </metadata>
<g><g transform="translate(0.000000,511.000000) scale(0.100000,-0.100000)"><path d="M100,4727.3v-281.5h281.5h281.5v281.5v281.5H381.5H100V4727.3z"/><path d="M1248.7,4727.3v-281.5h281.5h281.5v281.5v281.5h-281.5h-281.5V4727.3z"/><path d="M2397.4,4727.3v-281.5h281.5h281.5v281.5v281.5h-281.5h-281.5V4727.3z"/><path d="M3546.1,4727.3v-281.5h292.8h292.8v281.5v281.5h-292.8h-292.8V4727.3z"/><path d="M4694.8,4727.3v-281.5h292.8h292.8v281.5v281.5h-292.8h-292.8V4727.3z"/><path d="M5866,4727.3v-281.5h281.5h281.5v281.5v281.5h-281.5H5866V4727.3z"/><path d="M7014.7,4727.3v-281.5h281.6h281.5v281.5v281.5h-281.5h-281.6V4727.3z"/><path d="M8163.4,4727.3v-281.5H8445h281.5v281.5v281.5H8445h-281.6V4727.3z"/><path d="M9312.1,4727.3v-281.5H9605h292.8v281.5v281.5H9605h-292.8V4727.3z"/><path d="M100,3567.4v-292.8h281.5h281.5v292.8v292.8H381.5H100V3567.4z"/><path d="M9312.1,3567.4v-295.1l288.3,6.8l286.1,6.7l6.8,288.3l6.7,286.1h-295h-292.8V3567.4z"/><path d="M100,2418.7v-292.8h281.5h281.5v292.8v292.8H381.5H100V2418.7z"/><path d="M9312.1,2418.7v-295.1l288.3,6.8l286.1,6.7v281.5v281.5l-286.1,6.8l-288.3,6.8V2418.7z"/><path d="M100,1265.5V977.2h281.5h281.5v281.5c0,209.5-6.8,281.5-27,283.8c-15.8,2.3-144.1,4.5-281.5,6.8l-254.5,2.3V1265.5z"/><path d="M9420.3,1547l-108.1-9v-281.5V977.2H9605h292.8v281.5v281.5h-105.9c-60.8,0-144.1,4.5-186.9,9C9562.1,1553.8,9478.8,1551.5,9420.3,1547z"/><path d="M100,110v-281.5h281.5h281.5V110v281.5H381.5H100V110z"/><path d="M9312.1,110v-281.5H9605h292.8V110v281.5H9605h-292.8V110z"/><path d="M100-1038.7v-281.5h281.5h281.5v281.5v281.5H381.5H100V-1038.7z"/><path d="M9312.1-1038.7v-281.5H9605h292.8v281.5v281.5H9605h-292.8V-1038.7z"/><path d="M100-3347.4v-1441.5h4898.9h4898.9v1441.5v1441.5H4998.9H100V-3347.4z M9312.1-3356.4V-4219l-4284-2.2c-2358.2,0-4304.2,4.5-4324.5,9c-38.3,11.3-40.5,72.1-40.5,867.2v853.7h4324.5h4324.5V-3356.4z"/><path d="M1541.5-3347.4v-292.8h855.9h855.9v292.8v292.8h-855.9h-855.9V-3347.4z"/><path d="M6152.1-3070.3c-9-6.8-15.8-139.6-15.8-292.8v-277h292.8h292.8v292.8v292.8h-277C6291.7-3054.6,6158.8-3061.3,6152.1-3070.3z"/><path d="M7014.7-3347.4v-292.8h281.6h281.5v292.8v292.8h-281.5h-281.6V-3347.4z"/><path d="M7870.6-3347.4v-292.8h292.8h295l-6.7,288.3l-6.7,286.1l-286.1,6.7l-288.3,6.7V-3347.4z"/></g></g>
</svg>