<?xml version="1.0" encoding="utf-8"?>
<!-- Svg Vector Icons : http://www.onlinewebfonts.com/icon -->
<!DOCTYPE svg PUBLIC "-//W3C//DTD SVG 1.1//EN" "http://www.w3.org/Graphics/SVG/1.1/DTD/svg11.dtd">
<svg version="1.1" xmlns="http://www.w3.org/2000/svg" xmlns:xlink="http://www.w3.org/1999/xlink" x="0px" y="0px" viewBox="0 0 1000 1000" enable-background="new 0 0 1000 1000" xml:space="preserve">
<metadata> Svg Vector Icons : http://www.onlinewebfonts.com/icon </metadata>
<g><g transform="translate(0.000000,511.000000) scale(0.100000,-0.100000)"><path d="M118,4995.1c-9-6.7-15.7-653.8-15.7-1437.9V2135.1H5000h4897.8l-4.5,1433.4l-6.8,1431.1l-4877.5,6.7C2326.5,5008.6,124.7,5004.1,118,4995.1z M9313.6,3561.7v-865H5000H686.4v865v865H5000h4313.6V3561.7z"/><path d="M1540.1,3561.7v-280.8h584.1h584.1v280.8v280.8h-584.1h-584.1V3561.7z"/><path d="M3854.2,3561.7v-280.8H6157h2302.8v280.8v280.8H6157H3854.2V3561.7z"/><path d="M106.7,1265.6l6.7-287.6l287.6-6.7l285.3-6.7v294.3V1551H394.3H100L106.7,1265.6z"/><path d="M9313.6,1258.9V964.6l287.6,6.7l285.3,6.7l6.8,287.6l6.7,285.3h-294.3h-292.1V1258.9z"/><path d="M111.2,375.9c-4.5-15.7-6.7-146-4.5-287.6l6.7-256.1l287.6-6.7l285.3-6.8v294.3v292.1H405.6C194.4,405.2,120.2,398.4,111.2,375.9z"/><path d="M9313.6,113.1v-294.3l287.6,6.8l285.3,6.7v280.8v280.8l-285.3,6.7l-287.6,6.7V113.1z"/><path d="M118-756.4c-9-6.7-15.7-139.3-15.7-292.1v-276.3h292.1h292.1v292.1v292.1H410C257.3-740.7,124.7-747.4,118-756.4z"/><path d="M9313.6-1032.7v-292.1h292.1H9900l-6.7,287.6l-6.8,285.3l-285.3,6.7l-287.6,6.7V-1032.7z"/><path d="M102.3-2189.8v-280.8h292.1h292.1v280.8v280.8H394.3H102.3V-2189.8z"/><path d="M9313.6-2189.8v-280.8h292.1h292.1v280.8v280.8h-292.1h-292.1V-2189.8z"/><path d="M102.3-3335.6v-280.8h292.1h292.1v280.8v280.8H394.3H102.3V-3335.6z"/><path d="M9313.6-3335.6v-280.8h292.1h292.1v280.8v280.8h-292.1h-292.1V-3335.6z"/><path d="M106.7-4485.9l6.7-287.6l287.6-6.7l285.3-6.7v294.3v292.1H394.3H100L106.7-4485.9z"/><path d="M1270.5-4492.6v-292.1h280.8h280.8v292.1v292.1h-280.8h-280.8V-4492.6z"/><path d="M2416.3-4492.6v-292.1h280.8H2978v292.1v292.1h-280.8h-280.8V-4492.6z"/><path d="M3562.1-4492.6v-294.3l287.6,6.7l285.3,6.7l6.7,287.6l6.7,285.3h-294.3h-292.1V-4492.6z"/><path d="M4712.4-4485.9l6.7-287.6H5000h280.8l6.8,287.6l6.7,285.3H5000h-294.3L4712.4-4485.9z"/><path d="M5858.3-4485.9l6.7-287.6l287.6-6.7l285.3-6.7v294.3v292.1h-292.1h-294.3L5858.3-4485.9z"/><path d="M7022-4492.6v-292.1h280.8h280.8v292.1v292.1h-280.8H7022V-4492.6z"/><path d="M8167.8-4492.6v-292.1h280.8h280.8v292.1v292.1h-280.8h-280.8V-4492.6z"/><path d="M9313.6-4492.6v-294.3l287.6,6.7l285.3,6.7l6.8,287.6l6.7,285.3h-294.3h-292.1V-4492.6z"/></g></g>
</svg>