<svg xmlns="http://www.w3.org/2000/svg" viewBox="0 0 1000 1000" width="1000" height="1000">
	<style>
		tspan { white-space:pre }
		.shp0 { fill: #000000 } 
	</style>
	<g id="Layer">
		<g id="Layer">
			<path id="Layer" fill-rule="evenodd" class="shp0" d="M500.9 10.37L988.65 11.04L989.33 154.15L989.78 297.49L10.23 297.49L10.23 155.28C10.23 76.87 10.9 12.16 11.8 11.49C12.47 10.59 232.65 10.14 500.9 10.37ZM931.36 68.33L68.64 68.33L68.64 241.33L931.36 241.33L931.36 68.33Z" />
			<path id="Layer" class="shp0" d="M154.01 154.83L154.01 182.91L212.42 182.91L270.83 182.91L270.83 154.83L270.83 126.75L212.42 126.75L154.01 126.75L154.01 154.83Z" />
			<path id="Layer" class="shp0" d="M385.42 154.83L385.42 182.91L615.7 182.91L845.98 182.91L845.98 154.83L845.98 126.75L615.7 126.75L385.42 126.75L385.42 154.83Z" />
			<path id="Layer" class="shp0" d="M10.67 384.44L11.34 413.2L40.1 413.87L68.63 414.54L68.63 385.11L68.63 355.9L39.43 355.9L10 355.9L10.67 384.44Z" />
			<path id="Layer" class="shp0" d="M931.36 385.11L931.36 414.54L960.12 413.87L988.65 413.2L989.33 384.44L990 355.91L960.57 355.91L931.36 355.91L931.36 385.11Z" />
			<path id="Layer" class="shp0" d="M11.12 473.41C10.67 474.98 10.45 488.01 10.67 502.17L11.34 527.78L40.1 528.45L68.63 529.13L68.63 499.7L68.63 470.49L40.56 470.49C19.44 470.48 12.02 471.16 11.12 473.41Z" />
			<path id="Layer" class="shp0" d="M931.36 499.69L931.36 529.12L960.12 528.44L988.65 527.77L988.65 499.69L988.65 471.61L960.12 470.94L931.36 470.27L931.36 499.69Z" />
			<path id="Layer" class="shp0" d="M11.8 586.64C10.9 587.31 10.23 600.57 10.23 615.85L10.23 643.48L39.44 643.48L68.65 643.48L68.65 614.27L68.65 585.06L41 585.06C25.73 585.07 12.47 585.74 11.8 586.64Z" />
			<path id="Layer" class="shp0" d="M931.36 614.27L931.36 643.48L960.57 643.48L990 643.48L989.33 614.72L988.65 586.19L960.12 585.52L931.36 584.85L931.36 614.27Z" />
		</g>
	</g>
	<g id="Layer">
		<g id="Layer">
			<path id="Layer" class="shp0" d="M10 384.45L10 413.28L38.15 413.28L66.3 413.28L66.3 385.13C66.3 364.18 65.62 356.98 63.6 356.75C62.02 356.52 49.19 356.3 35.45 356.07L10 355.84L10 384.45Z" />
			<path id="Layer" class="shp0" d="M942.03 356.3L931.22 357.2L931.22 385.35L931.22 413.28L960.5 413.28L989.78 413.28L989.78 385.13L989.78 356.98L979.19 356.98C973.11 356.98 964.78 356.53 960.5 356.08C956.21 355.62 947.88 355.85 942.03 356.3Z" />
			<path id="Layer" class="shp0" d="M10 500L10 528.15L38.15 528.15L66.3 528.15L66.3 500L66.3 471.85L38.15 471.85L10 471.85L10 500Z" />
			<path id="Layer" class="shp0" d="M931.21 500L931.21 528.15L960.5 528.15L989.78 528.15L989.78 500L989.78 471.85L960.5 471.85L931.22 471.85L931.22 500L931.21 500Z" />
			<path id="Layer" class="shp0" d="M10 614.87L10 643.02L38.15 643.02L66.3 643.02L66.3 614.87L66.3 586.72L38.15 586.72L10 586.72L10 614.87Z" />
			<path id="Layer" class="shp0" d="M931.21 614.87L931.21 643.02L960.5 643.02L989.78 643.02L989.78 614.87L989.78 586.72L960.5 586.72L931.22 586.72L931.22 614.87L931.21 614.87Z" />
			<path id="Layer" fill-rule="evenodd" class="shp0" d="M10 701.59L989.78 701.59L989.78 989.89L10 989.89L10 701.59ZM931.21 760.13L66.31 760.13L66.31 845.5C66.31 925.01 66.53 931.09 70.36 932.22C72.39 932.67 266.99 933.12 502.81 933.12L931.21 932.9L931.21 760.13Z" />
			<path id="Layer" class="shp0" d="M154.15 845.74L154.15 875.02L239.74 875.02L325.33 875.02L325.33 845.74L325.33 816.46L239.74 816.46L154.15 816.46L154.15 845.74Z" />
			<path id="Layer" class="shp0" d="M615.21 818.03C614.31 818.71 613.63 831.99 613.63 847.31L613.63 875.01L642.91 875.01L672.19 875.01L672.19 845.73L672.19 816.45L644.49 816.45C629.17 816.46 615.88 817.13 615.21 818.03Z" />
			<path id="Layer" class="shp0" d="M701.47 845.74L701.47 875.02L729.63 875.02L757.78 875.02L757.78 845.74L757.78 816.46L729.63 816.46L701.47 816.46L701.47 845.74Z" />
			<path id="Layer" class="shp0" d="M787.06 845.74L787.06 875.02L816.34 875.02L845.84 875.02L845.17 846.19L844.5 817.58L815.89 816.91L787.06 816.24L787.06 845.74L787.06 845.74Z" />
		</g>
	</g>
</svg>