<?xml version="1.0" encoding="utf-8"?>
<svg xmlns="http://www.w3.org/2000/svg" xmlns:xlink="http://www.w3.org/1999/xlink" style="margin: auto; background: rgba(0, 0, 0, 0) none repeat scroll 0% 0%; display: block; shape-rendering: auto;" width="294px" height="294px" viewBox="0 0 100 100" preserveAspectRatio="xMidYMid">
<g transform="rotate(0 50 50)">
  <rect x="47.5" y="25" rx="0" ry="0" width="5" height="12" fill="#fe718d">
  </rect>
</g><g transform="rotate(32.72727272727273 50 50)">
  <rect x="47.5" y="25" rx="0" ry="0" width="5" height="12" fill="#fe718d">
  </rect>
</g><g transform="rotate(65.45454545454545 50 50)">
  <rect x="47.5" y="25" rx="0" ry="0" width="5" height="12" fill="#fe718d">
  </rect>
</g><g transform="rotate(98.18181818181819 50 50)">
  <rect x="47.5" y="25" rx="0" ry="0" width="5" height="12" fill="#fe718d">
  </rect>
</g><g transform="rotate(130.9090909090909 50 50)">
  <rect x="47.5" y="25" rx="0" ry="0" width="5" height="12" fill="#fe718d">
  </rect>
</g><g transform="rotate(163.63636363636363 50 50)">
  <rect x="47.5" y="25" rx="0" ry="0" width="5" height="12" fill="#fe718d">
  </rect>
</g><g transform="rotate(196.36363636363637 50 50)">
  <rect x="47.5" y="25" rx="0" ry="0" width="5" height="12" fill="#fe718d">
  </rect>
</g><g transform="rotate(229.0909090909091 50 50)">
  <rect x="47.5" y="25" rx="0" ry="0" width="5" height="12" fill="#fe718d">
  </rect>
</g><g transform="rotate(261.8181818181818 50 50)">
  <rect x="47.5" y="25" rx="0" ry="0" width="5" height="12" fill="#fe718d">
  </rect>
</g><g transform="rotate(294.54545454545456 50 50)">
  <rect x="47.5" y="25" rx="0" ry="0" width="5" height="12" fill="#fe718d">
  </rect>
</g><g transform="rotate(327.27272727272725 50 50)">
  <rect x="47.5" y="25" rx="0" ry="0" width="5" height="12" fill="#fe718d">
  </rect>
</g>
<!-- [ldio] generated by https://loading.io/ --></svg>