<svg xmlns="http://www.w3.org/2000/svg" viewBox="0 0 20 20" width="20" height="20">
	<style>
		tspan { white-space:pre }
		.shp0 { fill: none;stroke: #ffffff;stroke-width: 2.374 } 
		.shp1 { fill: none;stroke: #ffffff;stroke-width: 1.262 } 
	</style>
	<path id="Layer 2" class="shp0" d="M10.05 18.5C5.32 18.5 1.5 14.68 1.5 9.95C1.5 5.21 5.32 1.39 10.05 1.39C14.79 1.39 18.61 5.21 18.61 9.95C18.61 14.68 14.79 18.5 10.05 18.5Z" />
	<path id="Shape 12" class="shp1" d="M7.79 10.33L7.41 9.95L14.63 2.73L15.01 3.11L7.79 10.33Z" />
	<path id="Shape 12" class="shp1" d="M6.22 7.36L5.84 6.98L11.15 1.68L11.53 2.05L6.22 7.36Z" />
	<path id="Shape 12" class="shp1" d="M10.04 12.46L9.66 12.08L16.59 5.15L16.97 5.53L10.04 12.46Z" />
	<path id="Shape 12" class="shp1" d="M13.07 13.65L12.69 13.27L18.17 7.79L18.55 8.17L13.07 13.65Z" />
</svg>